<mxfile host="app.diagrams.net" modified="2023-09-27T08:56:06.503Z" agent="Mozilla/5.0 (X11; Linux x86_64) AppleWebKit/537.36 (KHTML, like Gecko) Chrome/117.0.0.0 Safari/537.36" etag="zmPXpoGyjEu9IwTXAOPI" version="21.7.5" type="github" pages="3">
  <diagram name="Página-1" id="UGopgMrxgarneLTLGVjD">
    <mxGraphModel dx="1434" dy="776" grid="1" gridSize="10" guides="1" tooltips="1" connect="1" arrows="1" fold="1" page="1" pageScale="1" pageWidth="827" pageHeight="1169" math="0" shadow="0">
      <root>
        <mxCell id="0" />
        <mxCell id="1" parent="0" />
        <mxCell id="BnFmcAFOGgUPTwx2ufXW-6" style="edgeStyle=orthogonalEdgeStyle;rounded=0;orthogonalLoop=1;jettySize=auto;html=1;exitX=0.994;exitY=0.27;exitDx=0;exitDy=0;exitPerimeter=0;" parent="1" source="BnFmcAFOGgUPTwx2ufXW-10" target="BnFmcAFOGgUPTwx2ufXW-3" edge="1">
          <mxGeometry relative="1" as="geometry">
            <mxPoint x="626" y="346.70000000000005" as="sourcePoint" />
            <Array as="points">
              <mxPoint x="670" y="536" />
              <mxPoint x="670" y="342" />
            </Array>
          </mxGeometry>
        </mxCell>
        <mxCell id="BnFmcAFOGgUPTwx2ufXW-3" value="" style="image;aspect=fixed;html=1;points=[];align=center;fontSize=12;image=img/lib/azure2/databases/Azure_Database_MySQL_Server.svg;" parent="1" vertex="1">
          <mxGeometry x="730" y="310" width="48" height="64" as="geometry" />
        </mxCell>
        <mxCell id="BnFmcAFOGgUPTwx2ufXW-5" style="edgeStyle=orthogonalEdgeStyle;rounded=0;orthogonalLoop=1;jettySize=auto;html=1;" parent="1" edge="1">
          <mxGeometry relative="1" as="geometry">
            <mxPoint x="350" y="325" as="targetPoint" />
            <mxPoint x="302.5" y="325" as="sourcePoint" />
          </mxGeometry>
        </mxCell>
        <mxCell id="BnFmcAFOGgUPTwx2ufXW-8" style="edgeStyle=orthogonalEdgeStyle;rounded=0;orthogonalLoop=1;jettySize=auto;html=1;" parent="1" edge="1">
          <mxGeometry relative="1" as="geometry">
            <mxPoint x="460" y="325" as="targetPoint" />
            <mxPoint x="406" y="325" as="sourcePoint" />
          </mxGeometry>
        </mxCell>
        <mxCell id="BnFmcAFOGgUPTwx2ufXW-9" style="edgeStyle=orthogonalEdgeStyle;rounded=0;orthogonalLoop=1;jettySize=auto;html=1;" parent="1" source="BnFmcAFOGgUPTwx2ufXW-10" target="BnFmcAFOGgUPTwx2ufXW-11" edge="1">
          <mxGeometry relative="1" as="geometry" />
        </mxCell>
        <mxCell id="BnFmcAFOGgUPTwx2ufXW-10" value="" style="image;aspect=fixed;html=1;points=[];align=center;fontSize=12;image=img/lib/azure2/general/Counter.svg;" parent="1" vertex="1">
          <mxGeometry x="462" y="500" width="164" height="133.25" as="geometry" />
        </mxCell>
        <mxCell id="BnFmcAFOGgUPTwx2ufXW-11" value="" style="image;aspect=fixed;html=1;points=[];align=center;fontSize=12;image=img/lib/azure2/databases/Azure_Database_MySQL_Server.svg;" parent="1" vertex="1">
          <mxGeometry x="730" y="530" width="48" height="64" as="geometry" />
        </mxCell>
        <mxCell id="BnFmcAFOGgUPTwx2ufXW-12" style="edgeStyle=orthogonalEdgeStyle;rounded=0;orthogonalLoop=1;jettySize=auto;html=1;" parent="1" source="BnFmcAFOGgUPTwx2ufXW-13" target="BnFmcAFOGgUPTwx2ufXW-15" edge="1">
          <mxGeometry relative="1" as="geometry">
            <mxPoint x="450" y="545" as="targetPoint" />
          </mxGeometry>
        </mxCell>
        <mxCell id="BnFmcAFOGgUPTwx2ufXW-13" value="" style="image;aspect=fixed;html=1;points=[];align=center;fontSize=12;image=img/lib/azure2/general/Blob_Block.svg;" parent="1" vertex="1">
          <mxGeometry x="140" y="480" width="162.5" height="130" as="geometry" />
        </mxCell>
        <mxCell id="BnFmcAFOGgUPTwx2ufXW-14" style="edgeStyle=orthogonalEdgeStyle;rounded=0;orthogonalLoop=1;jettySize=auto;html=1;" parent="1" source="BnFmcAFOGgUPTwx2ufXW-15" edge="1">
          <mxGeometry relative="1" as="geometry">
            <mxPoint x="460" y="545" as="targetPoint" />
          </mxGeometry>
        </mxCell>
        <mxCell id="BnFmcAFOGgUPTwx2ufXW-15" value="" style="image;aspect=fixed;html=1;points=[];align=center;fontSize=12;image=img/lib/azure2/general/Controls.svg;" parent="1" vertex="1">
          <mxGeometry x="350" y="510.5" width="56.00000000000001" height="69" as="geometry" />
        </mxCell>
        <mxCell id="BnFmcAFOGgUPTwx2ufXW-16" style="edgeStyle=orthogonalEdgeStyle;rounded=0;orthogonalLoop=1;jettySize=auto;html=1;exitX=1.024;exitY=0.795;exitDx=0;exitDy=0;exitPerimeter=0;" parent="1" source="BnFmcAFOGgUPTwx2ufXW-10" target="BnFmcAFOGgUPTwx2ufXW-18" edge="1">
          <mxGeometry relative="1" as="geometry">
            <mxPoint x="636" y="796.7" as="sourcePoint" />
            <Array as="points">
              <mxPoint x="660" y="606" />
              <mxPoint x="660" y="792" />
            </Array>
          </mxGeometry>
        </mxCell>
        <mxCell id="BnFmcAFOGgUPTwx2ufXW-18" value="" style="image;aspect=fixed;html=1;points=[];align=center;fontSize=12;image=img/lib/azure2/databases/Azure_Database_MySQL_Server.svg;" parent="1" vertex="1">
          <mxGeometry x="740" y="760" width="48" height="64" as="geometry" />
        </mxCell>
        <mxCell id="BnFmcAFOGgUPTwx2ufXW-23" value="Unitel" style="text;html=1;strokeColor=none;fillColor=none;align=center;verticalAlign=middle;whiteSpace=wrap;rounded=0;" parent="1" vertex="1">
          <mxGeometry x="160" y="380" width="60" height="30" as="geometry" />
        </mxCell>
        <mxCell id="BnFmcAFOGgUPTwx2ufXW-24" value="Africell" style="text;html=1;strokeColor=none;fillColor=none;align=center;verticalAlign=middle;whiteSpace=wrap;rounded=0;" parent="1" vertex="1">
          <mxGeometry x="160" y="440" width="60" height="30" as="geometry" />
        </mxCell>
        <mxCell id="BnFmcAFOGgUPTwx2ufXW-25" value="Movicel" style="text;html=1;strokeColor=none;fillColor=none;align=center;verticalAlign=middle;whiteSpace=wrap;rounded=0;" parent="1" vertex="1">
          <mxGeometry x="160" y="327" width="60" height="30" as="geometry" />
        </mxCell>
        <mxCell id="8G49znxiq0Z1rK6XiIzZ-1" value="" style="rounded=0;whiteSpace=wrap;html=1;" parent="1" vertex="1">
          <mxGeometry x="350" y="400" width="120" height="60" as="geometry" />
        </mxCell>
        <mxCell id="8G49znxiq0Z1rK6XiIzZ-8" style="edgeStyle=orthogonalEdgeStyle;rounded=0;orthogonalLoop=1;jettySize=auto;html=1;" parent="1" source="8G49znxiq0Z1rK6XiIzZ-2" target="8G49znxiq0Z1rK6XiIzZ-3" edge="1">
          <mxGeometry relative="1" as="geometry">
            <Array as="points">
              <mxPoint x="354" y="140" />
              <mxPoint x="210" y="140" />
            </Array>
          </mxGeometry>
        </mxCell>
        <mxCell id="8G49znxiq0Z1rK6XiIzZ-9" style="edgeStyle=orthogonalEdgeStyle;rounded=0;orthogonalLoop=1;jettySize=auto;html=1;exitX=0.75;exitY=1;exitDx=0;exitDy=0;entryX=0.5;entryY=0;entryDx=0;entryDy=0;" parent="1" source="8G49znxiq0Z1rK6XiIzZ-2" target="8G49znxiq0Z1rK6XiIzZ-4" edge="1">
          <mxGeometry relative="1" as="geometry">
            <Array as="points">
              <mxPoint x="354" y="110" />
              <mxPoint x="354" y="140" />
              <mxPoint x="450" y="140" />
            </Array>
          </mxGeometry>
        </mxCell>
        <mxCell id="8G49znxiq0Z1rK6XiIzZ-10" style="edgeStyle=orthogonalEdgeStyle;rounded=0;orthogonalLoop=1;jettySize=auto;html=1;exitX=0.25;exitY=1;exitDx=0;exitDy=0;" parent="1" source="8G49znxiq0Z1rK6XiIzZ-2" target="8G49znxiq0Z1rK6XiIzZ-6" edge="1">
          <mxGeometry relative="1" as="geometry">
            <Array as="points">
              <mxPoint x="354" y="110" />
              <mxPoint x="354" y="140" />
              <mxPoint x="670" y="140" />
            </Array>
          </mxGeometry>
        </mxCell>
        <mxCell id="8G49znxiq0Z1rK6XiIzZ-2" value="DTI" style="rounded=0;whiteSpace=wrap;html=1;" parent="1" vertex="1">
          <mxGeometry x="294" y="50" width="120" height="60" as="geometry" />
        </mxCell>
        <mxCell id="8G49znxiq0Z1rK6XiIzZ-3" value="QUALIDADE" style="rounded=0;whiteSpace=wrap;html=1;" parent="1" vertex="1">
          <mxGeometry x="150" y="170" width="120" height="60" as="geometry" />
        </mxCell>
        <mxCell id="8G49znxiq0Z1rK6XiIzZ-4" value="DESENVOLVIEMNTO" style="rounded=0;whiteSpace=wrap;html=1;" parent="1" vertex="1">
          <mxGeometry x="390" y="170" width="120" height="60" as="geometry" />
        </mxCell>
        <mxCell id="8G49znxiq0Z1rK6XiIzZ-5" value="DB" style="rounded=0;whiteSpace=wrap;html=1;" parent="1" vertex="1">
          <mxGeometry x="530" y="280" width="120" height="60" as="geometry" />
        </mxCell>
        <mxCell id="8G49znxiq0Z1rK6XiIzZ-11" style="edgeStyle=orthogonalEdgeStyle;rounded=0;orthogonalLoop=1;jettySize=auto;html=1;entryX=0.5;entryY=0;entryDx=0;entryDy=0;" parent="1" source="8G49znxiq0Z1rK6XiIzZ-6" target="8G49znxiq0Z1rK6XiIzZ-5" edge="1">
          <mxGeometry relative="1" as="geometry" />
        </mxCell>
        <mxCell id="8G49znxiq0Z1rK6XiIzZ-12" style="edgeStyle=orthogonalEdgeStyle;rounded=0;orthogonalLoop=1;jettySize=auto;html=1;exitX=0.75;exitY=1;exitDx=0;exitDy=0;" parent="1" source="8G49znxiq0Z1rK6XiIzZ-6" target="8G49znxiq0Z1rK6XiIzZ-7" edge="1">
          <mxGeometry relative="1" as="geometry">
            <Array as="points">
              <mxPoint x="670" y="230" />
              <mxPoint x="670" y="255" />
              <mxPoint x="887" y="255" />
            </Array>
          </mxGeometry>
        </mxCell>
        <mxCell id="8G49znxiq0Z1rK6XiIzZ-6" value="SISTEMAS" style="rounded=0;whiteSpace=wrap;html=1;" parent="1" vertex="1">
          <mxGeometry x="610" y="170" width="120" height="60" as="geometry" />
        </mxCell>
        <mxCell id="8G49znxiq0Z1rK6XiIzZ-7" value="Monitorização" style="rounded=0;whiteSpace=wrap;html=1;" parent="1" vertex="1">
          <mxGeometry x="827" y="280" width="120" height="60" as="geometry" />
        </mxCell>
        <mxCell id="jjppfyrlrmxI-NvFKCYZ-7" style="edgeStyle=orthogonalEdgeStyle;rounded=0;orthogonalLoop=1;jettySize=auto;html=1;entryX=0.5;entryY=1;entryDx=0;entryDy=0;" parent="1" source="jjppfyrlrmxI-NvFKCYZ-1" target="jjppfyrlrmxI-NvFKCYZ-5" edge="1">
          <mxGeometry relative="1" as="geometry" />
        </mxCell>
        <mxCell id="jjppfyrlrmxI-NvFKCYZ-1" value="RH&lt;br&gt;Nodejs" style="ellipse;whiteSpace=wrap;html=1;aspect=fixed;" parent="1" vertex="1">
          <mxGeometry x="1161" y="360" width="80" height="80" as="geometry" />
        </mxCell>
        <mxCell id="jjppfyrlrmxI-NvFKCYZ-2" value="Nova&lt;br&gt;" style="text;html=1;strokeColor=none;fillColor=none;align=center;verticalAlign=middle;whiteSpace=wrap;rounded=0;" parent="1" vertex="1">
          <mxGeometry x="1040" y="40" width="60" height="30" as="geometry" />
        </mxCell>
        <mxCell id="jjppfyrlrmxI-NvFKCYZ-8" style="edgeStyle=orthogonalEdgeStyle;rounded=0;orthogonalLoop=1;jettySize=auto;html=1;entryX=0.5;entryY=1;entryDx=0;entryDy=0;" parent="1" source="jjppfyrlrmxI-NvFKCYZ-3" target="jjppfyrlrmxI-NvFKCYZ-6" edge="1">
          <mxGeometry relative="1" as="geometry" />
        </mxCell>
        <mxCell id="jjppfyrlrmxI-NvFKCYZ-3" value="VND&lt;br&gt;PHP" style="ellipse;whiteSpace=wrap;html=1;aspect=fixed;" parent="1" vertex="1">
          <mxGeometry x="1390" y="360" width="80" height="80" as="geometry" />
        </mxCell>
        <mxCell id="jjppfyrlrmxI-NvFKCYZ-9" style="edgeStyle=orthogonalEdgeStyle;rounded=0;orthogonalLoop=1;jettySize=auto;html=1;" parent="1" source="jjppfyrlrmxI-NvFKCYZ-4" target="jjppfyrlrmxI-NvFKCYZ-5" edge="1">
          <mxGeometry relative="1" as="geometry" />
        </mxCell>
        <mxCell id="jjppfyrlrmxI-NvFKCYZ-10" style="edgeStyle=orthogonalEdgeStyle;rounded=0;orthogonalLoop=1;jettySize=auto;html=1;exitX=0.75;exitY=1;exitDx=0;exitDy=0;entryX=0.5;entryY=0;entryDx=0;entryDy=0;" parent="1" source="jjppfyrlrmxI-NvFKCYZ-4" target="jjppfyrlrmxI-NvFKCYZ-6" edge="1">
          <mxGeometry relative="1" as="geometry" />
        </mxCell>
        <mxCell id="jjppfyrlrmxI-NvFKCYZ-14" style="edgeStyle=orthogonalEdgeStyle;rounded=0;orthogonalLoop=1;jettySize=auto;html=1;exitX=0.25;exitY=1;exitDx=0;exitDy=0;entryX=0.5;entryY=0;entryDx=0;entryDy=0;" parent="1" source="jjppfyrlrmxI-NvFKCYZ-4" target="jjppfyrlrmxI-NvFKCYZ-13" edge="1">
          <mxGeometry relative="1" as="geometry" />
        </mxCell>
        <mxCell id="jjppfyrlrmxI-NvFKCYZ-4" value="React" style="rounded=0;whiteSpace=wrap;html=1;" parent="1" vertex="1">
          <mxGeometry x="1141" y="120" width="120" height="60" as="geometry" />
        </mxCell>
        <mxCell id="jjppfyrlrmxI-NvFKCYZ-5" value="API" style="shape=process;whiteSpace=wrap;html=1;backgroundOutline=1;" parent="1" vertex="1">
          <mxGeometry x="1141" y="280" width="120" height="20" as="geometry" />
        </mxCell>
        <mxCell id="jjppfyrlrmxI-NvFKCYZ-6" value="API" style="shape=process;whiteSpace=wrap;html=1;backgroundOutline=1;fillColor=#f8cecc;strokeColor=#b85450;" parent="1" vertex="1">
          <mxGeometry x="1370" y="280" width="120" height="20" as="geometry" />
        </mxCell>
        <mxCell id="jjppfyrlrmxI-NvFKCYZ-15" style="edgeStyle=orthogonalEdgeStyle;rounded=0;orthogonalLoop=1;jettySize=auto;html=1;exitX=0.5;exitY=0;exitDx=0;exitDy=0;entryX=0.5;entryY=1;entryDx=0;entryDy=0;" parent="1" source="jjppfyrlrmxI-NvFKCYZ-12" target="jjppfyrlrmxI-NvFKCYZ-13" edge="1">
          <mxGeometry relative="1" as="geometry" />
        </mxCell>
        <mxCell id="jjppfyrlrmxI-NvFKCYZ-12" value="BI&lt;br&gt;Nodejs" style="ellipse;whiteSpace=wrap;html=1;aspect=fixed;fillColor=#f8cecc;strokeColor=#b85450;" parent="1" vertex="1">
          <mxGeometry x="1000" y="357" width="80" height="80" as="geometry" />
        </mxCell>
        <mxCell id="jjppfyrlrmxI-NvFKCYZ-13" value="API" style="shape=process;whiteSpace=wrap;html=1;backgroundOutline=1;fillColor=#f8cecc;strokeColor=#b85450;" parent="1" vertex="1">
          <mxGeometry x="980" y="280" width="120" height="20" as="geometry" />
        </mxCell>
        <mxCell id="jjppfyrlrmxI-NvFKCYZ-17" style="edgeStyle=orthogonalEdgeStyle;rounded=0;orthogonalLoop=1;jettySize=auto;html=1;exitX=0.5;exitY=1;exitDx=0;exitDy=0;entryX=1;entryY=0.5;entryDx=0;entryDy=0;" parent="1" source="jjppfyrlrmxI-NvFKCYZ-16" target="jjppfyrlrmxI-NvFKCYZ-3" edge="1">
          <mxGeometry relative="1" as="geometry">
            <Array as="points">
              <mxPoint x="1430" y="200" />
              <mxPoint x="1510" y="200" />
              <mxPoint x="1510" y="400" />
            </Array>
          </mxGeometry>
        </mxCell>
        <mxCell id="jjppfyrlrmxI-NvFKCYZ-16" value="TWIG" style="rounded=0;whiteSpace=wrap;html=1;" parent="1" vertex="1">
          <mxGeometry x="1370" y="100" width="120" height="60" as="geometry" />
        </mxCell>
        <mxCell id="R2ZRLnZV4QKb53f0CKuO-5" style="edgeStyle=orthogonalEdgeStyle;rounded=0;orthogonalLoop=1;jettySize=auto;html=1;exitX=1;exitY=0;exitDx=0;exitDy=0;entryX=0;entryY=0.5;entryDx=0;entryDy=0;" parent="1" source="R2ZRLnZV4QKb53f0CKuO-1" target="R2ZRLnZV4QKb53f0CKuO-2" edge="1">
          <mxGeometry relative="1" as="geometry" />
        </mxCell>
        <mxCell id="R2ZRLnZV4QKb53f0CKuO-6" style="edgeStyle=orthogonalEdgeStyle;rounded=0;orthogonalLoop=1;jettySize=auto;html=1;exitX=1;exitY=0.5;exitDx=0;exitDy=0;entryX=0;entryY=0.5;entryDx=0;entryDy=0;" parent="1" source="R2ZRLnZV4QKb53f0CKuO-1" target="R2ZRLnZV4QKb53f0CKuO-3" edge="1">
          <mxGeometry relative="1" as="geometry" />
        </mxCell>
        <mxCell id="R2ZRLnZV4QKb53f0CKuO-7" style="edgeStyle=orthogonalEdgeStyle;rounded=0;orthogonalLoop=1;jettySize=auto;html=1;exitX=1;exitY=1;exitDx=0;exitDy=0;entryX=0;entryY=0.5;entryDx=0;entryDy=0;" parent="1" source="R2ZRLnZV4QKb53f0CKuO-1" target="R2ZRLnZV4QKb53f0CKuO-4" edge="1">
          <mxGeometry relative="1" as="geometry" />
        </mxCell>
        <mxCell id="R2ZRLnZV4QKb53f0CKuO-9" style="edgeStyle=orthogonalEdgeStyle;rounded=0;orthogonalLoop=1;jettySize=auto;html=1;exitX=0.5;exitY=1;exitDx=0;exitDy=0;entryX=0;entryY=0.763;entryDx=0;entryDy=0;entryPerimeter=0;" parent="1" source="R2ZRLnZV4QKb53f0CKuO-1" target="R2ZRLnZV4QKb53f0CKuO-8" edge="1">
          <mxGeometry relative="1" as="geometry">
            <Array as="points">
              <mxPoint x="300" y="1120" />
              <mxPoint x="519" y="1120" />
              <mxPoint x="519" y="981" />
            </Array>
          </mxGeometry>
        </mxCell>
        <mxCell id="R2ZRLnZV4QKb53f0CKuO-1" value="Nova AC" style="ellipse;whiteSpace=wrap;html=1;aspect=fixed;" parent="1" vertex="1">
          <mxGeometry x="260" y="1000" width="80" height="80" as="geometry" />
        </mxCell>
        <mxCell id="R2ZRLnZV4QKb53f0CKuO-2" value="loja 1" style="ellipse;whiteSpace=wrap;html=1;aspect=fixed;" parent="1" vertex="1">
          <mxGeometry x="370" y="880" width="70" height="70" as="geometry" />
        </mxCell>
        <mxCell id="R2ZRLnZV4QKb53f0CKuO-3" value="loja 2" style="ellipse;whiteSpace=wrap;html=1;aspect=fixed;" parent="1" vertex="1">
          <mxGeometry x="440" y="980" width="40" height="40" as="geometry" />
        </mxCell>
        <mxCell id="R2ZRLnZV4QKb53f0CKuO-4" value="loja 3" style="ellipse;whiteSpace=wrap;html=1;aspect=fixed;" parent="1" vertex="1">
          <mxGeometry x="450" y="1070" width="40" height="40" as="geometry" />
        </mxCell>
        <mxCell id="R2ZRLnZV4QKb53f0CKuO-8" value="Nova VND&lt;br&gt;SP1" style="ellipse;whiteSpace=wrap;html=1;aspect=fixed;" parent="1" vertex="1">
          <mxGeometry x="698" y="920" width="80" height="80" as="geometry" />
        </mxCell>
      </root>
    </mxGraphModel>
  </diagram>
  <diagram id="uA3vQHCr1ZSBtjsw68gD" name="Página-2">
    <mxGraphModel dx="1434" dy="776" grid="1" gridSize="10" guides="1" tooltips="1" connect="1" arrows="1" fold="1" page="1" pageScale="1" pageWidth="827" pageHeight="1169" math="0" shadow="0">
      <root>
        <mxCell id="0" />
        <mxCell id="1" parent="0" />
        <mxCell id="_lr-pq8ybd7ycd_Y9vaD-16" style="edgeStyle=orthogonalEdgeStyle;rounded=0;orthogonalLoop=1;jettySize=auto;html=1;entryX=1;entryY=0.5;entryDx=0;entryDy=0;" parent="1" source="_lr-pq8ybd7ycd_Y9vaD-1" target="_lr-pq8ybd7ycd_Y9vaD-4" edge="1">
          <mxGeometry relative="1" as="geometry">
            <Array as="points">
              <mxPoint x="370" y="70" />
              <mxPoint x="370" y="210" />
            </Array>
          </mxGeometry>
        </mxCell>
        <mxCell id="_lr-pq8ybd7ycd_Y9vaD-17" style="edgeStyle=orthogonalEdgeStyle;rounded=0;orthogonalLoop=1;jettySize=auto;html=1;exitX=1;exitY=0.25;exitDx=0;exitDy=0;entryX=1;entryY=0.5;entryDx=0;entryDy=0;" parent="1" source="_lr-pq8ybd7ycd_Y9vaD-1" target="_lr-pq8ybd7ycd_Y9vaD-3" edge="1">
          <mxGeometry relative="1" as="geometry">
            <Array as="points">
              <mxPoint x="440" y="55" />
              <mxPoint x="440" y="430" />
            </Array>
          </mxGeometry>
        </mxCell>
        <mxCell id="_lr-pq8ybd7ycd_Y9vaD-1" value="Factura proforma&lt;br style=&quot;font-size: 19px;&quot;&gt;" style="rounded=0;whiteSpace=wrap;html=1;fontSize=19;fillColor=#dae8fc;strokeColor=#6c8ebf;" parent="1" vertex="1">
          <mxGeometry x="200" y="40" width="120" height="60" as="geometry" />
        </mxCell>
        <mxCell id="_lr-pq8ybd7ycd_Y9vaD-23" style="edgeStyle=orthogonalEdgeStyle;rounded=0;orthogonalLoop=1;jettySize=auto;html=1;exitX=1;exitY=0.75;exitDx=0;exitDy=0;entryX=1;entryY=0.25;entryDx=0;entryDy=0;" parent="1" source="_lr-pq8ybd7ycd_Y9vaD-2" target="_lr-pq8ybd7ycd_Y9vaD-5" edge="1">
          <mxGeometry relative="1" as="geometry">
            <Array as="points">
              <mxPoint x="670" y="325" />
              <mxPoint x="670" y="785" />
            </Array>
          </mxGeometry>
        </mxCell>
        <mxCell id="_lr-pq8ybd7ycd_Y9vaD-2" value="Recibo" style="rounded=0;whiteSpace=wrap;html=1;fontSize=19;fillColor=#f5f5f5;strokeColor=#666666;fontColor=#333333;" parent="1" vertex="1">
          <mxGeometry x="200" y="280" width="120" height="60" as="geometry" />
        </mxCell>
        <mxCell id="_lr-pq8ybd7ycd_Y9vaD-20" style="edgeStyle=orthogonalEdgeStyle;rounded=0;orthogonalLoop=1;jettySize=auto;html=1;exitX=1;exitY=0.75;exitDx=0;exitDy=0;entryX=1;entryY=0.5;entryDx=0;entryDy=0;" parent="1" source="_lr-pq8ybd7ycd_Y9vaD-3" target="_lr-pq8ybd7ycd_Y9vaD-6" edge="1">
          <mxGeometry relative="1" as="geometry">
            <Array as="points">
              <mxPoint x="530" y="445" />
              <mxPoint x="530" y="670" />
            </Array>
          </mxGeometry>
        </mxCell>
        <mxCell id="_lr-pq8ybd7ycd_Y9vaD-22" style="edgeStyle=orthogonalEdgeStyle;rounded=0;orthogonalLoop=1;jettySize=auto;html=1;exitX=1;exitY=0.25;exitDx=0;exitDy=0;entryX=1;entryY=0.25;entryDx=0;entryDy=0;" parent="1" source="_lr-pq8ybd7ycd_Y9vaD-3" target="_lr-pq8ybd7ycd_Y9vaD-6" edge="1">
          <mxGeometry relative="1" as="geometry">
            <Array as="points">
              <mxPoint x="600" y="415" />
              <mxPoint x="600" y="655" />
            </Array>
          </mxGeometry>
        </mxCell>
        <mxCell id="_lr-pq8ybd7ycd_Y9vaD-24" style="edgeStyle=orthogonalEdgeStyle;rounded=0;orthogonalLoop=1;jettySize=auto;html=1;exitX=0.75;exitY=0;exitDx=0;exitDy=0;entryX=1;entryY=0.5;entryDx=0;entryDy=0;" parent="1" source="_lr-pq8ybd7ycd_Y9vaD-3" target="_lr-pq8ybd7ycd_Y9vaD-5" edge="1">
          <mxGeometry relative="1" as="geometry">
            <Array as="points">
              <mxPoint x="313" y="380" />
              <mxPoint x="700" y="380" />
              <mxPoint x="700" y="800" />
            </Array>
          </mxGeometry>
        </mxCell>
        <mxCell id="_lr-pq8ybd7ycd_Y9vaD-3" value="Factura/Recibo" style="rounded=0;whiteSpace=wrap;html=1;fontSize=19;fillColor=#f8cecc;strokeColor=#b85450;" parent="1" vertex="1">
          <mxGeometry x="200" y="400" width="150" height="60" as="geometry" />
        </mxCell>
        <mxCell id="_lr-pq8ybd7ycd_Y9vaD-18" style="edgeStyle=orthogonalEdgeStyle;rounded=0;orthogonalLoop=1;jettySize=auto;html=1;exitX=1;exitY=0.75;exitDx=0;exitDy=0;entryX=1;entryY=0.5;entryDx=0;entryDy=0;" parent="1" source="_lr-pq8ybd7ycd_Y9vaD-4" target="_lr-pq8ybd7ycd_Y9vaD-2" edge="1">
          <mxGeometry relative="1" as="geometry" />
        </mxCell>
        <mxCell id="_lr-pq8ybd7ycd_Y9vaD-19" style="edgeStyle=orthogonalEdgeStyle;rounded=0;orthogonalLoop=1;jettySize=auto;html=1;exitX=1;exitY=0.25;exitDx=0;exitDy=0;entryX=1;entryY=0.5;entryDx=0;entryDy=0;" parent="1" source="_lr-pq8ybd7ycd_Y9vaD-4" target="_lr-pq8ybd7ycd_Y9vaD-7" edge="1">
          <mxGeometry relative="1" as="geometry">
            <Array as="points">
              <mxPoint x="490" y="195" />
              <mxPoint x="490" y="550" />
            </Array>
          </mxGeometry>
        </mxCell>
        <mxCell id="_lr-pq8ybd7ycd_Y9vaD-21" style="edgeStyle=orthogonalEdgeStyle;rounded=0;orthogonalLoop=1;jettySize=auto;html=1;exitX=0.75;exitY=1;exitDx=0;exitDy=0;entryX=1;entryY=0.25;entryDx=0;entryDy=0;" parent="1" source="_lr-pq8ybd7ycd_Y9vaD-4" target="_lr-pq8ybd7ycd_Y9vaD-7" edge="1">
          <mxGeometry relative="1" as="geometry">
            <Array as="points">
              <mxPoint x="560" y="240" />
              <mxPoint x="560" y="535" />
            </Array>
          </mxGeometry>
        </mxCell>
        <mxCell id="_lr-pq8ybd7ycd_Y9vaD-4" value="Factura" style="rounded=0;whiteSpace=wrap;html=1;fontSize=19;fillColor=#dae8fc;strokeColor=#6c8ebf;" parent="1" vertex="1">
          <mxGeometry x="200" y="180" width="150" height="60" as="geometry" />
        </mxCell>
        <mxCell id="_lr-pq8ybd7ycd_Y9vaD-5" value="Nota de crédito" style="rounded=0;whiteSpace=wrap;html=1;fontSize=19;fillColor=#e1d5e7;strokeColor=#9673a6;" parent="1" vertex="1">
          <mxGeometry x="200" y="770" width="150" height="60" as="geometry" />
        </mxCell>
        <mxCell id="_lr-pq8ybd7ycd_Y9vaD-6" value="Nota de entrega" style="rounded=0;whiteSpace=wrap;html=1;fontSize=19;fillColor=#d5e8d4;strokeColor=#82b366;" parent="1" vertex="1">
          <mxGeometry x="200" y="640" width="150" height="60" as="geometry" />
        </mxCell>
        <mxCell id="_lr-pq8ybd7ycd_Y9vaD-7" value="Nota de recebimento" style="rounded=0;whiteSpace=wrap;html=1;fontSize=19;fillColor=#dae8fc;strokeColor=#6c8ebf;" parent="1" vertex="1">
          <mxGeometry x="200" y="520" width="150" height="60" as="geometry" />
        </mxCell>
        <mxCell id="_lr-pq8ybd7ycd_Y9vaD-8" value="Consulta de cotação de produto ou serviço" style="text;html=1;strokeColor=none;fillColor=none;align=right;verticalAlign=middle;whiteSpace=wrap;rounded=0;fontSize=16;" parent="1" vertex="1">
          <mxGeometry x="40" y="40" width="120" height="70" as="geometry" />
        </mxCell>
        <mxCell id="_lr-pq8ybd7ycd_Y9vaD-9" value="Conta corrente de cliente" style="rounded=0;whiteSpace=wrap;html=1;fontSize=19;fillColor=#fff2cc;strokeColor=#d6b656;" parent="1" vertex="1">
          <mxGeometry x="200" y="880" width="150" height="60" as="geometry" />
        </mxCell>
        <mxCell id="_lr-pq8ybd7ycd_Y9vaD-10" value="Venda" style="text;html=1;strokeColor=none;fillColor=none;align=right;verticalAlign=middle;whiteSpace=wrap;rounded=0;fontSize=16;" parent="1" vertex="1">
          <mxGeometry x="40" y="160" width="120" height="70" as="geometry" />
        </mxCell>
        <mxCell id="_lr-pq8ybd7ycd_Y9vaD-11" value="Recebimento de Valores" style="text;html=1;strokeColor=none;fillColor=none;align=right;verticalAlign=middle;whiteSpace=wrap;rounded=0;fontSize=16;" parent="1" vertex="1">
          <mxGeometry x="40" y="270" width="120" height="70" as="geometry" />
        </mxCell>
        <mxCell id="_lr-pq8ybd7ycd_Y9vaD-12" value="Venda e&amp;nbsp; Recebimento de valores" style="text;html=1;strokeColor=none;fillColor=none;align=right;verticalAlign=middle;whiteSpace=wrap;rounded=0;fontSize=16;" parent="1" vertex="1">
          <mxGeometry x="40" y="400" width="120" height="70" as="geometry" />
        </mxCell>
        <mxCell id="_lr-pq8ybd7ycd_Y9vaD-13" value="Recebimento de Produtos vendidos" style="text;html=1;strokeColor=none;fillColor=none;align=right;verticalAlign=middle;whiteSpace=wrap;rounded=0;fontSize=16;" parent="1" vertex="1">
          <mxGeometry x="40" y="520" width="120" height="70" as="geometry" />
        </mxCell>
        <mxCell id="_lr-pq8ybd7ycd_Y9vaD-14" value="Entrega de Produtos vendidos" style="text;html=1;strokeColor=none;fillColor=none;align=right;verticalAlign=middle;whiteSpace=wrap;rounded=0;fontSize=16;" parent="1" vertex="1">
          <mxGeometry x="40" y="640" width="120" height="70" as="geometry" />
        </mxCell>
        <mxCell id="_lr-pq8ybd7ycd_Y9vaD-15" value="Anulação de Venda" style="text;html=1;strokeColor=none;fillColor=none;align=right;verticalAlign=middle;whiteSpace=wrap;rounded=0;fontSize=16;" parent="1" vertex="1">
          <mxGeometry x="40" y="760" width="120" height="70" as="geometry" />
        </mxCell>
      </root>
    </mxGraphModel>
  </diagram>
  <diagram id="a2FteCdhYs6k_7XtlZbS" name="Página-3">
    <mxGraphModel dx="819" dy="2781" grid="1" gridSize="10" guides="1" tooltips="1" connect="1" arrows="1" fold="1" page="1" pageScale="1" pageWidth="827" pageHeight="1169" math="0" shadow="0">
      <root>
        <mxCell id="0" />
        <mxCell id="1" parent="0" />
        <mxCell id="sCbhC2V3Tq_EXIwLnvGf-1" value="&lt;h1&gt;Presenças e faltas&lt;/h1&gt;&lt;p&gt;Lorem ipsum dolor sit amet, consectetur adipisicing elit, sed do eiusmod tempor incididunt ut labore et dolore magna aliqua.&lt;/p&gt;" style="text;html=1;strokeColor=none;fillColor=none;spacing=5;spacingTop=-20;whiteSpace=wrap;overflow=hidden;rounded=0;" vertex="1" parent="1">
          <mxGeometry x="30" y="-2290" width="190" height="120" as="geometry" />
        </mxCell>
        <mxCell id="sCbhC2V3Tq_EXIwLnvGf-2" value="Atrasos e ausencias" style="rounded=0;whiteSpace=wrap;html=1;" vertex="1" parent="1">
          <mxGeometry x="660" y="-2260" width="120" height="60" as="geometry" />
        </mxCell>
        <mxCell id="sCbhC2V3Tq_EXIwLnvGf-3" value="Ferias" style="rounded=0;whiteSpace=wrap;html=1;" vertex="1" parent="1">
          <mxGeometry x="660" y="-2170" width="120" height="60" as="geometry" />
        </mxCell>
        <mxCell id="sCbhC2V3Tq_EXIwLnvGf-4" value="Faltas" style="rounded=0;whiteSpace=wrap;html=1;" vertex="1" parent="1">
          <mxGeometry x="660" y="-2090" width="120" height="60" as="geometry" />
        </mxCell>
        <mxCell id="sCbhC2V3Tq_EXIwLnvGf-5" value="Horas extras" style="rounded=0;whiteSpace=wrap;html=1;" vertex="1" parent="1">
          <mxGeometry x="660" y="-2010" width="120" height="60" as="geometry" />
        </mxCell>
        <mxCell id="sCbhC2V3Tq_EXIwLnvGf-6" value="Tempo" style="swimlane;fontStyle=0;childLayout=stackLayout;horizontal=1;startSize=26;fillColor=none;horizontalStack=0;resizeParent=1;resizeParentMax=0;resizeLast=0;collapsible=1;marginBottom=0;whiteSpace=wrap;html=1;" vertex="1" parent="1">
          <mxGeometry x="40" y="-2120" width="220" height="182" as="geometry" />
        </mxCell>
        <mxCell id="sCbhC2V3Tq_EXIwLnvGf-7" value="+ coolaborador: Colaborador" style="text;strokeColor=none;fillColor=none;align=left;verticalAlign=top;spacingLeft=4;spacingRight=4;overflow=hidden;rotatable=0;points=[[0,0.5],[1,0.5]];portConstraint=eastwest;whiteSpace=wrap;html=1;" vertex="1" parent="sCbhC2V3Tq_EXIwLnvGf-6">
          <mxGeometry y="26" width="220" height="26" as="geometry" />
        </mxCell>
        <mxCell id="sCbhC2V3Tq_EXIwLnvGf-25" value="+ aprovador: Colaborador" style="text;strokeColor=none;fillColor=none;align=left;verticalAlign=top;spacingLeft=4;spacingRight=4;overflow=hidden;rotatable=0;points=[[0,0.5],[1,0.5]];portConstraint=eastwest;whiteSpace=wrap;html=1;" vertex="1" parent="sCbhC2V3Tq_EXIwLnvGf-6">
          <mxGeometry y="52" width="220" height="26" as="geometry" />
        </mxCell>
        <mxCell id="sCbhC2V3Tq_EXIwLnvGf-8" value="+ dataInicio: DateTime" style="text;strokeColor=none;fillColor=none;align=left;verticalAlign=top;spacingLeft=4;spacingRight=4;overflow=hidden;rotatable=0;points=[[0,0.5],[1,0.5]];portConstraint=eastwest;whiteSpace=wrap;html=1;" vertex="1" parent="sCbhC2V3Tq_EXIwLnvGf-6">
          <mxGeometry y="78" width="220" height="26" as="geometry" />
        </mxCell>
        <mxCell id="sCbhC2V3Tq_EXIwLnvGf-11" value="+ dataFim: DateTime" style="text;strokeColor=none;fillColor=none;align=left;verticalAlign=top;spacingLeft=4;spacingRight=4;overflow=hidden;rotatable=0;points=[[0,0.5],[1,0.5]];portConstraint=eastwest;whiteSpace=wrap;html=1;" vertex="1" parent="sCbhC2V3Tq_EXIwLnvGf-6">
          <mxGeometry y="104" width="220" height="26" as="geometry" />
        </mxCell>
        <mxCell id="sCbhC2V3Tq_EXIwLnvGf-9" value="+ tipo: TipoTempo" style="text;strokeColor=none;fillColor=none;align=left;verticalAlign=top;spacingLeft=4;spacingRight=4;overflow=hidden;rotatable=0;points=[[0,0.5],[1,0.5]];portConstraint=eastwest;whiteSpace=wrap;html=1;" vertex="1" parent="sCbhC2V3Tq_EXIwLnvGf-6">
          <mxGeometry y="130" width="220" height="26" as="geometry" />
        </mxCell>
        <mxCell id="sCbhC2V3Tq_EXIwLnvGf-23" value="+ justificacões: JustificacaoTempo" style="text;strokeColor=none;fillColor=none;align=left;verticalAlign=top;spacingLeft=4;spacingRight=4;overflow=hidden;rotatable=0;points=[[0,0.5],[1,0.5]];portConstraint=eastwest;whiteSpace=wrap;html=1;" vertex="1" parent="sCbhC2V3Tq_EXIwLnvGf-6">
          <mxGeometry y="156" width="220" height="26" as="geometry" />
        </mxCell>
        <mxCell id="sCbhC2V3Tq_EXIwLnvGf-12" value="TipoTempo" style="swimlane;fontStyle=0;childLayout=stackLayout;horizontal=1;startSize=26;fillColor=none;horizontalStack=0;resizeParent=1;resizeParentMax=0;resizeLast=0;collapsible=1;marginBottom=0;whiteSpace=wrap;html=1;" vertex="1" parent="1">
          <mxGeometry x="380" y="-2210" width="220" height="78" as="geometry" />
        </mxCell>
        <mxCell id="sCbhC2V3Tq_EXIwLnvGf-13" value="+ nome: string" style="text;strokeColor=none;fillColor=none;align=left;verticalAlign=top;spacingLeft=4;spacingRight=4;overflow=hidden;rotatable=0;points=[[0,0.5],[1,0.5]];portConstraint=eastwest;whiteSpace=wrap;html=1;" vertex="1" parent="sCbhC2V3Tq_EXIwLnvGf-12">
          <mxGeometry y="26" width="220" height="26" as="geometry" />
        </mxCell>
        <mxCell id="sCbhC2V3Tq_EXIwLnvGf-14" value="+ code: string" style="text;strokeColor=none;fillColor=none;align=left;verticalAlign=top;spacingLeft=4;spacingRight=4;overflow=hidden;rotatable=0;points=[[0,0.5],[1,0.5]];portConstraint=eastwest;whiteSpace=wrap;html=1;" vertex="1" parent="sCbhC2V3Tq_EXIwLnvGf-12">
          <mxGeometry y="52" width="220" height="26" as="geometry" />
        </mxCell>
        <mxCell id="sCbhC2V3Tq_EXIwLnvGf-17" value="Colaborador" style="rounded=0;whiteSpace=wrap;html=1;fillColor=#f5f5f5;fontColor=#333333;strokeColor=#666666;" vertex="1" parent="1">
          <mxGeometry x="380" y="-2290" width="220" height="60" as="geometry" />
        </mxCell>
        <mxCell id="sCbhC2V3Tq_EXIwLnvGf-18" style="edgeStyle=orthogonalEdgeStyle;rounded=0;orthogonalLoop=1;jettySize=auto;html=1;exitX=1;exitY=0.5;exitDx=0;exitDy=0;entryX=0;entryY=0.5;entryDx=0;entryDy=0;endArrow=none;endFill=0;" edge="1" parent="1" source="sCbhC2V3Tq_EXIwLnvGf-9" target="sCbhC2V3Tq_EXIwLnvGf-13">
          <mxGeometry relative="1" as="geometry" />
        </mxCell>
        <mxCell id="sCbhC2V3Tq_EXIwLnvGf-19" style="edgeStyle=orthogonalEdgeStyle;rounded=0;orthogonalLoop=1;jettySize=auto;html=1;exitX=1;exitY=0.5;exitDx=0;exitDy=0;entryX=0;entryY=0.5;entryDx=0;entryDy=0;startArrow=none;startFill=0;endArrow=none;endFill=0;" edge="1" parent="1" source="sCbhC2V3Tq_EXIwLnvGf-7" target="sCbhC2V3Tq_EXIwLnvGf-17">
          <mxGeometry relative="1" as="geometry">
            <Array as="points">
              <mxPoint x="300" y="-2081" />
              <mxPoint x="300" y="-2260" />
            </Array>
          </mxGeometry>
        </mxCell>
        <mxCell id="sCbhC2V3Tq_EXIwLnvGf-20" value="JustificacaoTempo" style="swimlane;fontStyle=0;childLayout=stackLayout;horizontal=1;startSize=26;fillColor=none;horizontalStack=0;resizeParent=1;resizeParentMax=0;resizeLast=0;collapsible=1;marginBottom=0;whiteSpace=wrap;html=1;" vertex="1" parent="1">
          <mxGeometry x="380" y="-2094" width="220" height="78" as="geometry" />
        </mxCell>
        <mxCell id="sCbhC2V3Tq_EXIwLnvGf-21" value="+ motivo: string" style="text;strokeColor=none;fillColor=none;align=left;verticalAlign=top;spacingLeft=4;spacingRight=4;overflow=hidden;rotatable=0;points=[[0,0.5],[1,0.5]];portConstraint=eastwest;whiteSpace=wrap;html=1;" vertex="1" parent="sCbhC2V3Tq_EXIwLnvGf-20">
          <mxGeometry y="26" width="220" height="26" as="geometry" />
        </mxCell>
        <mxCell id="sCbhC2V3Tq_EXIwLnvGf-22" value="+ code: string" style="text;strokeColor=none;fillColor=none;align=left;verticalAlign=top;spacingLeft=4;spacingRight=4;overflow=hidden;rotatable=0;points=[[0,0.5],[1,0.5]];portConstraint=eastwest;whiteSpace=wrap;html=1;" vertex="1" parent="sCbhC2V3Tq_EXIwLnvGf-20">
          <mxGeometry y="52" width="220" height="26" as="geometry" />
        </mxCell>
        <mxCell id="sCbhC2V3Tq_EXIwLnvGf-24" style="edgeStyle=orthogonalEdgeStyle;rounded=0;orthogonalLoop=1;jettySize=auto;html=1;exitX=1;exitY=0.5;exitDx=0;exitDy=0;endArrow=none;endFill=0;" edge="1" parent="1" source="sCbhC2V3Tq_EXIwLnvGf-23">
          <mxGeometry relative="1" as="geometry">
            <mxPoint x="380" y="-2055" as="targetPoint" />
            <Array as="points">
              <mxPoint x="260" y="-1950" />
              <mxPoint x="340" y="-1950" />
              <mxPoint x="340" y="-2055" />
            </Array>
          </mxGeometry>
        </mxCell>
        <mxCell id="sCbhC2V3Tq_EXIwLnvGf-33" value="*" style="edgeLabel;html=1;align=center;verticalAlign=middle;resizable=0;points=[];" vertex="1" connectable="0" parent="sCbhC2V3Tq_EXIwLnvGf-24">
          <mxGeometry x="0.9532" y="1" relative="1" as="geometry">
            <mxPoint as="offset" />
          </mxGeometry>
        </mxCell>
        <mxCell id="sCbhC2V3Tq_EXIwLnvGf-34" value="1" style="edgeLabel;html=1;align=center;verticalAlign=middle;resizable=0;points=[];" vertex="1" connectable="0" parent="sCbhC2V3Tq_EXIwLnvGf-24">
          <mxGeometry x="-0.8104" relative="1" as="geometry">
            <mxPoint as="offset" />
          </mxGeometry>
        </mxCell>
        <mxCell id="sCbhC2V3Tq_EXIwLnvGf-26" style="edgeStyle=orthogonalEdgeStyle;rounded=0;orthogonalLoop=1;jettySize=auto;html=1;exitX=1;exitY=0.5;exitDx=0;exitDy=0;entryX=0;entryY=0.75;entryDx=0;entryDy=0;endArrow=none;endFill=0;" edge="1" parent="1" source="sCbhC2V3Tq_EXIwLnvGf-25" target="sCbhC2V3Tq_EXIwLnvGf-17">
          <mxGeometry relative="1" as="geometry">
            <Array as="points">
              <mxPoint x="310" y="-2055" />
              <mxPoint x="310" y="-2245" />
            </Array>
          </mxGeometry>
        </mxCell>
        <mxCell id="sCbhC2V3Tq_EXIwLnvGf-29" value="1" style="edgeLabel;html=1;align=center;verticalAlign=middle;resizable=0;points=[];" vertex="1" connectable="0" parent="sCbhC2V3Tq_EXIwLnvGf-26">
          <mxGeometry x="0.929" y="-1" relative="1" as="geometry">
            <mxPoint as="offset" />
          </mxGeometry>
        </mxCell>
        <mxCell id="sCbhC2V3Tq_EXIwLnvGf-30" value="*" style="edgeLabel;html=1;align=center;verticalAlign=middle;resizable=0;points=[];" vertex="1" connectable="0" parent="sCbhC2V3Tq_EXIwLnvGf-26">
          <mxGeometry x="-0.9272" y="3" relative="1" as="geometry">
            <mxPoint as="offset" />
          </mxGeometry>
        </mxCell>
        <mxCell id="sCbhC2V3Tq_EXIwLnvGf-27" value="*" style="text;html=1;align=center;verticalAlign=middle;resizable=0;points=[];autosize=1;strokeColor=none;fillColor=none;" vertex="1" parent="1">
          <mxGeometry x="255" y="-2102" width="30" height="30" as="geometry" />
        </mxCell>
        <mxCell id="sCbhC2V3Tq_EXIwLnvGf-28" value="1" style="text;html=1;align=center;verticalAlign=middle;resizable=0;points=[];autosize=1;strokeColor=none;fillColor=none;" vertex="1" parent="1">
          <mxGeometry x="355" y="-2282" width="30" height="30" as="geometry" />
        </mxCell>
        <mxCell id="sCbhC2V3Tq_EXIwLnvGf-31" value="1" style="text;html=1;align=center;verticalAlign=middle;resizable=0;points=[];autosize=1;strokeColor=none;fillColor=none;" vertex="1" parent="1">
          <mxGeometry x="355" y="-2192" width="30" height="30" as="geometry" />
        </mxCell>
        <mxCell id="sCbhC2V3Tq_EXIwLnvGf-32" value="*" style="text;html=1;align=center;verticalAlign=middle;resizable=0;points=[];autosize=1;strokeColor=none;fillColor=none;" vertex="1" parent="1">
          <mxGeometry x="265" y="-2002" width="30" height="30" as="geometry" />
        </mxCell>
        <mxCell id="sCbhC2V3Tq_EXIwLnvGf-35" value="&lt;h1&gt;Regras de negócios&lt;/h1&gt;&lt;p&gt;1- Quem regista:&amp;nbsp;&lt;/p&gt;&lt;p&gt;a) Ferias e Horas extras: Colaborador, Responsavel e DRH&lt;br&gt;b) Ausencias e Atrasos: Responsavel e DRH&lt;br&gt;c) Justificativo: Colaborador, Responsavel e DRH&lt;br&gt;&lt;/p&gt;&lt;p&gt;2- Quem Aprova&lt;/p&gt;&lt;p&gt;a) Todos: Responsavel e DRH&lt;br&gt;&lt;/p&gt;&lt;p style=&quot;border-color: var(--border-color);&quot;&gt;3- Sobre atarsos e ausencias:&lt;br style=&quot;border-color: var(--border-color);&quot;&gt;a) Tolerancia de 15 minutos, depois disso começa a contar o atraso,&lt;/p&gt;&lt;p style=&quot;border-color: var(--border-color);&quot;&gt;&lt;span style=&quot;background-color: initial;&quot;&gt;b) So contabiliza para os dia laborais,&lt;/span&gt;&lt;/p&gt;&lt;p style=&quot;border-color: var(--border-color);&quot;&gt;3- Sobre Faltas:&lt;br style=&quot;border-color: var(--border-color);&quot;&gt;a)&amp;nbsp;So contabiliza para os dia laborais,&lt;br&gt;&lt;/p&gt;&lt;p style=&quot;border-color: var(--border-color);&quot;&gt;3- Sobre Horas extras:&lt;br style=&quot;border-color: var(--border-color);&quot;&gt;a) Tolerancia de 15 minutos,&lt;/p&gt;&lt;p style=&quot;border-color: var(--border-color);&quot;&gt;&lt;span style=&quot;border-color: var(--border-color); background-color: initial;&quot;&gt;b) So contabiliza para os dia e horariso não laborais,&lt;/span&gt;&lt;/p&gt;&lt;p&gt;&lt;br&gt;&lt;/p&gt;" style="text;html=1;strokeColor=none;fillColor=none;spacing=5;spacingTop=-20;whiteSpace=wrap;overflow=hidden;rounded=0;" vertex="1" parent="1">
          <mxGeometry x="40" y="-1920" width="470" height="390" as="geometry" />
        </mxCell>
      </root>
    </mxGraphModel>
  </diagram>
</mxfile>
